<svg id="confirmation_number-24px" xmlns="http://www.w3.org/2000/svg" width="24" height="24" viewBox="0 0 24 24">
  <path id="Path_1672" data-name="Path 1672" d="M0,0H24V24H0Z" fill="none"/>
  <path id="Path_1673" data-name="Path 1673" d="M22,10V6a2,2,0,0,0-2-2H4A1.991,1.991,0,0,0,2.01,6v4A2,2,0,0,1,2,14v4a2.006,2.006,0,0,0,2,2H20a2.006,2.006,0,0,0,2-2V14a2,2,0,0,1,0-4ZM20,8.54a3.993,3.993,0,0,0,0,6.92V18H4V15.46A4.013,4.013,0,0,0,6,12,3.992,3.992,0,0,0,4.01,8.54L4,6H20ZM11,15h2v2H11Zm0-4h2v2H11Zm0-4h2V9H11Z" fill="#4d4d4d"/>
</svg>
